ISO-10303-21;
HEADER;
FILE_DESCRIPTION (( 'STEP AP214' ),
    '1' );
FILE_NAME ('IS31FL3194-CLS2-TR.STEP',
    '2020-06-22T21:57:04',
    ( '' ),
    ( '' ),
    'SwSTEP 2.0',
    'SolidWorks 2018',
    '' );
FILE_SCHEMA (( 'AUTOMOTIVE_DESIGN' ));
ENDSEC;

DATA;
#1 = ORIENTED_EDGE ( 'NONE', *, *, #49, .F. ) ;
#2 = DIRECTION ( 'NONE',  ( 1.000000000000000000, 0.0000000000000000000, -0.0000000000000000000 ) ) ;
#3 = CARTESIAN_POINT ( 'NONE',  ( 0.4949999999999988853, -1.873018953454556268, 0.7949999999999997069 ) ) ;
#4 = DIRECTION ( 'NONE',  ( 0.0000000000000000000, 0.0000000000000000000, -1.000000000000000000 ) ) ;
#5 = EDGE_CURVE ( 'NONE', #195, #366, #301, .T. ) ;
#6 = CARTESIAN_POINT ( 'NONE',  ( -0.4949999999999997735, 0.4214999999999999858, 0.7949999999999997069 ) ) ;
#7 =( GEOMETRIC_REPRESENTATION_CONTEXT ( 3 ) GLOBAL_UNCERTAINTY_ASSIGNED_CONTEXT ( ( #777 ) ) GLOBAL_UNIT_ASSIGNED_CONTEXT ( ( #514, #511, #258 ) ) REPRESENTATION_CONTEXT ( 'NONE', 'WORKASPACE' ) );
#8 = ADVANCED_FACE ( 'NONE', ( #124 ), #761, .T. ) ;
#9 = CIRCLE ( 'NONE', #563, 0.1249999999999999445 ) ;
#10 = ORIENTED_EDGE ( 'NONE', *, *, #550, .T. ) ;
#11 = ORIENTED_EDGE ( 'NONE', *, *, #421, .F. ) ;
#12 = FILL_AREA_STYLE_COLOUR ( '', #522 ) ;
#13 = CLOSED_SHELL ( 'NONE', ( #651, #123, #256 ) ) ;
#14 = VECTOR ( 'NONE', #710, 1000.000000000000000 ) ;
#15 = CARTESIAN_POINT ( 'NONE',  ( 0.1999999999999996503, -5.421010862427522170E-17, -0.2000000000000000944 ) ) ;
#16 = DIRECTION ( 'NONE',  ( -1.000000000000000000, 0.0000000000000000000, 0.0000000000000000000 ) ) ;
#17 = CARTESIAN_POINT ( 'NONE',  ( 0.1999999999999996503, 0.1249999999999998890, -0.2000000000000000944 ) ) ;
#18 = COLOUR_RGB ( '',0.7921568627450980005, 0.8196078431372548767, 0.9333333333333333481 ) ;
#19 = CARTESIAN_POINT ( 'NONE',  ( -0.09322921747968743178, 0.05999999999999994227, -0.2000000000000000944 ) ) ;
#20 = ORIENTED_EDGE ( 'NONE', *, *, #58, .T. ) ;
#21 =( NAMED_UNIT ( * ) SI_UNIT ( $, .STERADIAN. ) SOLID_ANGLE_UNIT ( ) );
#22 = CARTESIAN_POINT ( 'NONE',  ( -0.2000000000000005107, 0.05999999999999994227, -0.6000000000000003109 ) ) ;
#23 = FILL_AREA_STYLE ('',( #796 ) ) ;
#24 = EDGE_CURVE ( 'NONE', #325, #531, #70, .T. ) ;
#25 = CARTESIAN_POINT ( 'NONE',  ( 0.09322921747968655748, 0.05999999999999994227, -0.2000000000000000944 ) ) ;
#26 = VERTEX_POINT ( 'NONE', #306 ) ;
#27 = FACE_OUTER_BOUND ( 'NONE', #293, .T. ) ;
#28 = PLANE ( 'NONE',  #117 ) ;
#29 = CARTESIAN_POINT ( 'NONE',  ( 0.1999999999999996503, 0.05999999999999994227, -0.2000000000000000944 ) ) ;
#30 = AXIS2_PLACEMENT_3D ( 'NONE', #401, #653, #4 ) ;
#31 = CARTESIAN_POINT ( 'NONE',  ( -0.4949999999999997735, -1.873018953454556268, 0.7949999999999997069 ) ) ;
#32 = DIRECTION ( 'NONE',  ( 0.0000000000000000000, 0.0000000000000000000, -1.000000000000000000 ) ) ;
#33 =( LENGTH_UNIT ( ) NAMED_UNIT ( * ) SI_UNIT ( .MILLI., .METRE. ) );
#34 = DIRECTION ( 'NONE',  ( -0.0000000000000000000, -1.000000000000000000, -0.0000000000000000000 ) ) ;
#35 = EDGE_CURVE ( 'NONE', #116, #128, #565, .T. ) ;
#36 = ORIENTED_EDGE ( 'NONE', *, *, #242, .T. ) ;
#37 = PLANE ( 'NONE',  #782 ) ;
#38 = EDGE_LOOP ( 'NONE', ( #773, #349, #473 ) ) ;
#39 = FACE_OUTER_BOUND ( 'NONE', #492, .T. ) ;
#40 = FILL_AREA_STYLE_COLOUR ( '', #784 ) ;
#41 = CIRCLE ( 'NONE', #614, 0.1249999999999999445 ) ;
#42 = UNCERTAINTY_MEASURE_WITH_UNIT (LENGTH_MEASURE( 1.000000000000000082E-05 ), #790, 'distance_accuracy_value', 'NONE');
#43 = DIRECTION ( 'NONE',  ( -1.000000000000000000, 0.0000000000000000000, -2.168404344971009854E-16 ) ) ;
#44 = DIRECTION ( 'NONE',  ( 1.000000000000000000, 0.0000000000000000000, 0.0000000000000000000 ) ) ;
#45 = ADVANCED_FACE ( 'NONE', ( #779 ), #683, .F. ) ;
#46 = CARTESIAN_POINT ( 'NONE',  ( -0.2000000000000005107, 0.1249999999999998890, -0.6000000000000003109 ) ) ;
#47 = CIRCLE ( 'NONE', #496, 0.1067707825203130928 ) ;
#48 = ORIENTED_EDGE ( 'NONE', *, *, #187, .T. ) ;
#49 = EDGE_CURVE ( 'NONE', #507, #105, #545, .T. ) ;
#50 = ORIENTED_EDGE ( 'NONE', *, *, #340, .F. ) ;
#51 = AXIS2_PLACEMENT_3D ( 'NONE', #756, #562, #628 ) ;
#52 = COLOUR_RGB ( '',0.7921568627450980005, 0.8196078431372548767, 0.9333333333333333481 ) ;
#53 = DIRECTION ( 'NONE',  ( 1.000000000000000000, 0.0000000000000000000, 0.0000000000000000000 ) ) ;
#54 = FILL_AREA_STYLE ('',( #458 ) ) ;
#55 = ADVANCED_FACE ( 'NONE', ( #322 ), #282, .T. ) ;
#56 = MANIFOLD_SOLID_BREP ( 'Sketch-Pattern1[6]', #453 ) ;
#57 = CIRCLE ( 'NONE', #374, 0.1067707825203130373 ) ;
#58 = EDGE_CURVE ( 'NONE', #688, #190, #515, .T. ) ;
#59 = VERTEX_POINT ( 'NONE', #196 ) ;
#60 = ORIENTED_EDGE ( 'NONE', *, *, #607, .T. ) ;
#61 = CARTESIAN_POINT ( 'NONE',  ( 0.7999999999999983791, 0.05999999999999994227, -0.1950000000000007283 ) ) ;
#62 = AXIS2_PLACEMENT_3D ( 'NONE', #524, #716, #528 ) ;
#63 =( NAMED_UNIT ( * ) PLANE_ANGLE_UNIT ( ) SI_UNIT ( $, .RADIAN. ) );
#64 = PRESENTATION_STYLE_ASSIGNMENT (( #398 ) ) ;
#65 = CARTESIAN_POINT ( 'NONE',  ( -0.3067707825203136451, 0.05999999999999994227, 0.1999999999999996503 ) ) ;
#66 = AXIS2_PLACEMENT_3D ( 'NONE', #298, #430, #740 ) ;
#67 = PLANE ( 'NONE',  #676 ) ;
#68 = VECTOR ( 'NONE', #810, 1000.000000000000000 ) ;
#69 =( LENGTH_UNIT ( ) NAMED_UNIT ( * ) SI_UNIT ( .MILLI., .METRE. ) );
#70 = CIRCLE ( 'NONE', #265, 0.1249999999999999445 ) ;
#71 = ORIENTED_EDGE ( 'NONE', *, *, #421, .T. ) ;
#72 = EDGE_CURVE ( 'NONE', #531, #140, #592, .T. ) ;
#73 = VECTOR ( 'NONE', #357, 1000.000000000000000 ) ;
#74 = ADVANCED_FACE ( 'NONE', ( #163 ), #399, .T. ) ;
#75 = DIRECTION ( 'NONE',  ( 1.000000000000000000, 0.0000000000000000000, 0.0000000000000000000 ) ) ;
#76 = LINE ( 'NONE', #406, #339 ) ;
#77 = DIRECTION ( 'NONE',  ( 1.224646799147353207E-16, 0.0000000000000000000, -1.000000000000000000 ) ) ;
#78 = FILL_AREA_STYLE_COLOUR ( '', #200 ) ;
#79 = STYLED_ITEM ( 'NONE', ( #561 ), #644 ) ;
#80 = DIRECTION ( 'NONE',  ( 0.0000000000000000000, 0.0000000000000000000, -1.000000000000000000 ) ) ;
#81 = ORIENTED_EDGE ( 'NONE', *, *, #146, .F. ) ;
#82 = CARTESIAN_POINT ( 'NONE',  ( -0.3067707825203136451, 0.05999999999999994227, -0.2000000000000000944 ) ) ;
#83 = ORIENTED_EDGE ( 'NONE', *, *, #24, .T. ) ;
#84 = CARTESIAN_POINT ( 'NONE',  ( -0.09322921747968743178, 0.05999999999999994227, 0.5999999999999998668 ) ) ;
#85 = EDGE_CURVE ( 'NONE', #197, #128, #665, .T. ) ;
#86 = SURFACE_SIDE_STYLE ('',( #338 ) ) ;
#87 = STYLED_ITEM ( 'NONE', ( #741 ), #715 ) ;
#88 = FACE_OUTER_BOUND ( 'NONE', #227, .T. ) ;
#89 = CARTESIAN_POINT ( 'NONE',  ( 0.1999999999999996503, 0.1249999999999998890, 0.1999999999999996503 ) ) ;
#90 = EDGE_CURVE ( 'NONE', #689, #302, #9, .T. ) ;
#91 = CIRCLE ( 'NONE', #51, 0.1249999999999999445 ) ;
#92 = EDGE_LOOP ( 'NONE', ( #624, #198, #205 ) ) ;
#93 = VERTEX_POINT ( 'NONE', #65 ) ;
#94 =( NAMED_UNIT ( * ) SI_UNIT ( $, .STERADIAN. ) SOLID_ANGLE_UNIT ( ) );
#95 = SHAPE_DEFINITION_REPRESENTATION ( #819, #715 ) ;
#96 = DIRECTION ( 'NONE',  ( 0.0000000000000000000, 0.0000000000000000000, -1.000000000000000000 ) ) ;
#97 = AXIS2_PLACEMENT_3D ( 'NONE', #252, #749, #121 ) ;
#98 = AXIS2_PLACEMENT_3D ( 'NONE', #22, #416, #485 ) ;
#99 = DIRECTION ( 'NONE',  ( 0.0000000000000000000, 0.0000000000000000000, 1.000000000000000000 ) ) ;
#100 =( GEOMETRIC_REPRESENTATION_CONTEXT ( 3 ) GLOBAL_UNCERTAINTY_ASSIGNED_CONTEXT ( ( #177 ) ) GLOBAL_UNIT_ASSIGNED_CONTEXT ( ( #33, #805, #802 ) ) REPRESENTATION_CONTEXT ( 'NONE', 'WORKASPACE' ) );
#101 = CARTESIAN_POINT ( 'NONE',  ( 0.4949999999999988853, -1.873018953454556268, 0.7949999999999997069 ) ) ;
#102 =( NAMED_UNIT ( * ) SI_UNIT ( $, .STERADIAN. ) SOLID_ANGLE_UNIT ( ) );
#103 =( LENGTH_UNIT ( ) NAMED_UNIT ( * ) SI_UNIT ( .MILLI., .METRE. ) );
#104 = DIRECTION ( 'NONE',  ( -1.000000000000000000, 0.0000000000000000000, -2.168404344971009854E-16 ) ) ;
#105 = VERTEX_POINT ( 'NONE', #452 ) ;
#106 = ORIENTED_EDGE ( 'NONE', *, *, #159, .F. ) ;
#107 = APPLICATION_CONTEXT ( 'automotive_design' ) ;
#108 = EDGE_CURVE ( 'NONE', #623, #816, #574, .T. ) ;
#109 = STYLED_ITEM ( 'NONE', ( #389 ), #537 ) ;
#110 = CARTESIAN_POINT ( 'NONE',  ( 0.1999999999999996503, 0.1249999999999998890, -0.2000000000000000944 ) ) ;
#111 = AXIS2_PLACEMENT_3D ( 'NONE', #119, #441, #53 ) ;
#112 = ORIENTED_EDGE ( 'NONE', *, *, #722, .T. ) ;
#113 =( GEOMETRIC_REPRESENTATION_CONTEXT ( 3 ) GLOBAL_UNCERTAINTY_ASSIGNED_CONTEXT ( ( #654 ) ) GLOBAL_UNIT_ASSIGNED_CONTEXT ( ( #218, #413, #222 ) ) REPRESENTATION_CONTEXT ( 'NONE', 'WORKASPACE' ) );
#114 = DIRECTION ( 'NONE',  ( 0.0000000000000000000, -1.000000000000000000, -0.0000000000000000000 ) ) ;
#115 = ADVANCED_FACE ( 'NONE', ( #365 ), #225, .F. ) ;
#116 = VERTEX_POINT ( 'NONE', #84 ) ;
#117 = AXIS2_PLACEMENT_3D ( 'NONE', #183, #245, #241 ) ;
#118 = FACE_OUTER_BOUND ( 'NONE', #290, .T. ) ;
#119 = CARTESIAN_POINT ( 'NONE',  ( -0.2000000000000005107, 0.1249999999999998890, 0.1999999999999996503 ) ) ;
#120 = EDGE_CURVE ( 'NONE', #444, #774, #812, .T. ) ;
#121 = DIRECTION ( 'NONE',  ( 0.0000000000000000000, 0.0000000000000000000, -1.000000000000000000 ) ) ;
#122 = CARTESIAN_POINT ( 'NONE',  ( -0.2000000000000005107, -5.421010862427522170E-17, 0.1999999999999996503 ) ) ;
#123 = ADVANCED_FACE ( 'NONE', ( #622 ), #411, .F. ) ;
#124 = FACE_OUTER_BOUND ( 'NONE', #378, .T. ) ;
#125 = FILL_AREA_STYLE_COLOUR ( '', #209 ) ;
#126 = ORIENTED_EDGE ( 'NONE', *, *, #193, .T. ) ;
#127 = AXIS2_PLACEMENT_3D ( 'NONE', #440, #186, #247 ) ;
#128 = VERTEX_POINT ( 'NONE', #785 ) ;
#129 = CIRCLE ( 'NONE', #558, 0.1067707825203130928 ) ;
#130 = CARTESIAN_POINT ( 'NONE',  ( 0.1999999999999996503, 0.1249999999999998890, 0.5999999999999998668 ) ) ;
#131 = ADVANCED_FACE ( 'NONE', ( #259 ), #376, .T. ) ;
#132 =( NAMED_UNIT ( * ) SI_UNIT ( $, .STERADIAN. ) SOLID_ANGLE_UNIT ( ) );
#133 = PRESENTATION_STYLE_ASSIGNMENT (( #147 ) ) ;
#134 = EDGE_CURVE ( 'NONE', #455, #302, #57, .T. ) ;
#135 = DIRECTION ( 'NONE',  ( -0.0000000000000000000, -1.000000000000000000, -0.0000000000000000000 ) ) ;
#136 = VECTOR ( 'NONE', #32, 1000.000000000000000 ) ;
#137 = DIRECTION ( 'NONE',  ( -0.0000000000000000000, -1.000000000000000000, -0.0000000000000000000 ) ) ;
#138 = EDGE_CURVE ( 'NONE', #369, #490, #460, .T. ) ;
#139 = ORIENTED_EDGE ( 'NONE', *, *, #506, .T. ) ;
#140 = VERTEX_POINT ( 'NONE', #19 ) ;
#141 =( NAMED_UNIT ( * ) PLANE_ANGLE_UNIT ( ) SI_UNIT ( $, .RADIAN. ) );
#142 = SURFACE_STYLE_FILL_AREA ( #23 ) ;
#143 = CARTESIAN_POINT ( 'NONE',  ( -0.2000000000000005107, 0.1249999999999998890, 0.5999999999999998668 ) ) ;
#144 = DIRECTION ( 'NONE',  ( 0.0000000000000000000, 0.0000000000000000000, -1.000000000000000000 ) ) ;
#145 = DIRECTION ( 'NONE',  ( 1.000000000000000000, 0.0000000000000000000, 0.0000000000000000000 ) ) ;
#146 = EDGE_CURVE ( 'NONE', #617, #518, #641, .T. ) ;
#147 = SURFACE_STYLE_USAGE ( .BOTH. , #156 ) ;
#148 = AXIS2_PLACEMENT_3D ( 'NONE', #671, #813, #615 ) ;
#149 = DIRECTION ( 'NONE',  ( 0.0000000000000000000, 0.0000000000000000000, -1.000000000000000000 ) ) ;
#150 = ADVANCED_FACE ( 'NONE', ( #203 ), #194, .T. ) ;
#151 = CIRCLE ( 'NONE', #570, 0.1067707825203130373 ) ;
#152 = CARTESIAN_POINT ( 'NONE',  ( 1.199999999999998623, 0.05999999999999994227, -0.5950000000000008615 ) ) ;
#153 = ORIENTED_EDGE ( 'NONE', *, *, #726, .T. ) ;
#154 = ORIENTED_EDGE ( 'NONE', *, *, #72, .T. ) ;
#155 = ORIENTED_EDGE ( 'NONE', *, *, #668, .F. ) ;
#156 = SURFACE_SIDE_STYLE ('',( #172 ) ) ;
#157 =( NAMED_UNIT ( * ) PLANE_ANGLE_UNIT ( ) SI_UNIT ( $, .RADIAN. ) );
#158 = DIRECTION ( 'NONE',  ( 1.000000000000000000, 0.0000000000000000000, 0.0000000000000000000 ) ) ;
#159 = EDGE_CURVE ( 'NONE', #313, #195, #557, .T. ) ;
#160 = CARTESIAN_POINT ( 'NONE',  ( 0.3067707825203127570, 0.05999999999999994227, 0.5999999999999998668 ) ) ;
#161 = AXIS2_PLACEMENT_3D ( 'NONE', #201, #208, #569 ) ;
#162 = CARTESIAN_POINT ( 'NONE',  ( -0.2000000000000005107, 0.1249999999999998890, 0.5999999999999998668 ) ) ;
#163 = FACE_OUTER_BOUND ( 'NONE', #426, .T. ) ;
#164 = ORIENTED_EDGE ( 'NONE', *, *, #722, .F. ) ;
#165 = SURFACE_SIDE_STYLE ('',( #142 ) ) ;
#166 = ORIENTED_EDGE ( 'NONE', *, *, #269, .T. ) ;
#167 = EDGE_CURVE ( 'NONE', #197, #116, #482, .T. ) ;
#168 = SPHERICAL_SURFACE ( 'NONE', #343, 0.1249999999999999445 ) ;
#169 = STYLED_ITEM ( 'NONE', ( #587 ), #612 ) ;
#170 = CARTESIAN_POINT ( 'NONE',  ( -0.2000000000000005107, 0.1249999999999998890, -0.2000000000000000944 ) ) ;
#171 = AXIS2_PLACEMENT_3D ( 'NONE', #110, #809, #104 ) ;
#172 = SURFACE_STYLE_FILL_AREA ( #706 ) ;
#173 = DIRECTION ( 'NONE',  ( 1.000000000000000000, 0.0000000000000000000, 0.0000000000000000000 ) ) ;
#174 = EDGE_CURVE ( 'NONE', #26, #518, #429, .T. ) ;
#175 = DIRECTION ( 'NONE',  ( 1.000000000000000000, 0.0000000000000000000, 0.0000000000000000000 ) ) ;
#176 =( NAMED_UNIT ( * ) PLANE_ANGLE_UNIT ( ) SI_UNIT ( $, .RADIAN. ) );
#177 = UNCERTAINTY_MEASURE_WITH_UNIT (LENGTH_MEASURE( 1.000000000000000082E-05 ), #33, 'distance_accuracy_value', 'NONE');
#178 = VECTOR ( 'NONE', #267, 1000.000000000000000 ) ;
#179 = ORIENTED_EDGE ( 'NONE', *, *, #72, .F. ) ;
#180 = ORIENTED_EDGE ( 'NONE', *, *, #167, .F. ) ;
#181 = CARTESIAN_POINT ( 'NONE',  ( 0.1999999999999996503, 0.1249999999999998890, 0.1999999999999996503 ) ) ;
#182 = AXIS2_PLACEMENT_3D ( 'NONE', #745, #498, #44 ) ;
#183 = CARTESIAN_POINT ( 'NONE',  ( 0.7999999999999983791, 0.05999999999999994227, -0.9950000000000006617 ) ) ;
#184 = FILL_AREA_STYLE ('',( #380 ) ) ;
#185 = DIRECTION ( 'NONE',  ( 0.0000000000000000000, -0.0000000000000000000, 1.000000000000000000 ) ) ;
#186 = DIRECTION ( 'NONE',  ( 0.0000000000000000000, 0.0000000000000000000, 1.000000000000000000 ) ) ;
#187 = EDGE_CURVE ( 'NONE', #490, #366, #289, .T. ) ;
#188 = DIRECTION ( 'NONE',  ( -0.0000000000000000000, -1.000000000000000000, -0.0000000000000000000 ) ) ;
#189 = DIRECTION ( 'NONE',  ( -0.0000000000000000000, -1.000000000000000000, -0.0000000000000000000 ) ) ;
#190 = VERTEX_POINT ( 'NONE', #801 ) ;
#191 = EDGE_CURVE ( 'NONE', #366, #386, #253, .T. ) ;
#192 = CARTESIAN_POINT ( 'NONE',  ( 0.7999999999999983791, 0.05999999999999994227, -0.5950000000000008615 ) ) ;
#193 = EDGE_CURVE ( 'NONE', #190, #688, #47, .T. ) ;
#194 = SPHERICAL_SURFACE ( 'NONE', #397, 0.1249999999999999445 ) ;
#195 = VERTEX_POINT ( 'NONE', #375 ) ;
#196 = CARTESIAN_POINT ( 'NONE',  ( 0.1999999999999996503, -5.421010862427522170E-17, 0.1999999999999996503 ) ) ;
#197 = VERTEX_POINT ( 'NONE', #743 ) ;
#198 = ORIENTED_EDGE ( 'NONE', *, *, #174, .T. ) ;
#199 = SURFACE_STYLE_USAGE ( .BOTH. , #765 ) ;
#200 = COLOUR_RGB ( '',0.7921568627450980005, 0.8196078431372548767, 0.9333333333333333481 ) ;
#201 = CARTESIAN_POINT ( 'NONE',  ( 1.199999999999998623, 0.05999999999999994227, -0.1950000000000007283 ) ) ;
#202 = EDGE_CURVE ( 'NONE', #825, #93, #422, .T. ) ;
#203 = FACE_OUTER_BOUND ( 'NONE', #38, .T. ) ;
#204 = DIRECTION ( 'NONE',  ( -0.0000000000000000000, -1.000000000000000000, -0.0000000000000000000 ) ) ;
#205 = ORIENTED_EDGE ( 'NONE', *, *, #340, .T. ) ;
#206 = AXIS2_PLACEMENT_3D ( 'NONE', #61, #390, #264 ) ;
#207 = EDGE_LOOP ( 'NONE', ( #806, #595, #763, #827 ) ) ;
#208 = DIRECTION ( 'NONE',  ( 0.0000000000000000000, -1.000000000000000000, -0.0000000000000000000 ) ) ;
#209 = COLOUR_RGB ( '',0.2509803921568627416, 0.2509803921568627416, 0.2509803921568627416 ) ;
#210 = MANIFOLD_SOLID_BREP ( 'Sketch-Pattern1[8]', #234 ) ;
#211 = EDGE_CURVE ( 'NONE', #507, #604, #333, .T. ) ;
#212 = CARTESIAN_POINT ( 'NONE',  ( 0.1999999999999996503, 0.1249999999999998890, 0.5999999999999998668 ) ) ;
#213 = PRESENTATION_LAYER_ASSIGNMENT (  '', '', ( #169 ) ) ;
#214 = FACE_OUTER_BOUND ( 'NONE', #697, .T. ) ;
#215 = DIRECTION ( 'NONE',  ( 5.455105270367317374E-16, -0.0000000000000000000, 1.000000000000000000 ) ) ;
#216 = SURFACE_STYLE_FILL_AREA ( #627 ) ;
#217 = EDGE_LOOP ( 'NONE', ( #539, #632, #272 ) ) ;
#218 =( LENGTH_UNIT ( ) NAMED_UNIT ( * ) SI_UNIT ( .MILLI., .METRE. ) );
#219 = FACE_OUTER_BOUND ( 'NONE', #792, .T. ) ;
#220 = ADVANCED_FACE ( 'NONE', ( #791 ), #442, .T. ) ;
#221 = DIRECTION ( 'NONE',  ( 1.000000000000000000, 0.0000000000000000000, 0.0000000000000000000 ) ) ;
#222 =( NAMED_UNIT ( * ) SI_UNIT ( $, .STERADIAN. ) SOLID_ANGLE_UNIT ( ) );
#223 = AXIS2_PLACEMENT_3D ( 'NONE', #329, #135, #521 ) ;
#224 = ORIENTED_EDGE ( 'NONE', *, *, #138, .T. ) ;
#225 = PLANE ( 'NONE',  #815 ) ;
#226 = EDGE_CURVE ( 'NONE', #59, #774, #270, .T. ) ;
#227 = EDGE_LOOP ( 'NONE', ( #81, #50 ) ) ;
#228 = CARTESIAN_POINT ( 'NONE',  ( -0.2000000000000005107, 0.1249999999999998890, 0.5999999999999998668 ) ) ;
#229 = DIRECTION ( 'NONE',  ( 1.000000000000000000, 0.0000000000000000000, 0.0000000000000000000 ) ) ;
#230 = DIRECTION ( 'NONE',  ( 1.000000000000000000, 0.0000000000000000000, 0.0000000000000000000 ) ) ;
#231 = DIRECTION ( 'NONE',  ( 1.224646799147353207E-16, 0.0000000000000000000, -1.000000000000000000 ) ) ;
#232 = DIRECTION ( 'NONE',  ( -0.0000000000000000000, -1.000000000000000000, -0.0000000000000000000 ) ) ;
#233 = SPHERICAL_SURFACE ( 'NONE', #182, 0.1249999999999999445 ) ;
#234 = CLOSED_SHELL ( 'NONE', ( #693, #277, #504 ) ) ;
#235 = DIRECTION ( 'NONE',  ( 0.0000000000000000000, 0.0000000000000000000, -1.000000000000000000 ) ) ;
#236 = EDGE_LOOP ( 'NONE', ( #656, #179 ) ) ;
#237 = EDGE_CURVE ( 'NONE', #283, #93, #91, .T. ) ;
#238 = CIRCLE ( 'NONE', #62, 0.1249999999999999445 ) ;
#239 = AXIS2_PLACEMENT_3D ( 'NONE', #833, #629, #634 ) ;
#240 = APPLICATION_PROTOCOL_DEFINITION ( 'draft international standard', 'automotive_design', 1998, #613 ) ;
#241 = DIRECTION ( 'NONE',  ( 0.0000000000000000000, 0.0000000000000000000, -1.000000000000000000 ) ) ;
#242 = EDGE_CURVE ( 'NONE', #313, #386, #747, .T. ) ;
#243 = PRESENTATION_STYLE_ASSIGNMENT (( #373 ) ) ;
#244 = ORIENTED_EDGE ( 'NONE', *, *, #193, .F. ) ;
#245 = DIRECTION ( 'NONE',  ( 0.0000000000000000000, -1.000000000000000000, -0.0000000000000000000 ) ) ;
#246 = ORIENTED_EDGE ( 'NONE', *, *, #584, .T. ) ;
#247 = DIRECTION ( 'NONE',  ( 1.000000000000000000, 0.0000000000000000000, 0.0000000000000000000 ) ) ;
#248 = CARTESIAN_POINT ( 'NONE',  ( -0.09322921747968743178, 0.05999999999999994227, 0.1999999999999996503 ) ) ;
#249 = DIRECTION ( 'NONE',  ( 1.224646799147353207E-16, 0.0000000000000000000, -1.000000000000000000 ) ) ;
#250 = AXIS2_PLACEMENT_3D ( 'NONE', #582, #268, #2 ) ;
#251 = MECHANICAL_DESIGN_GEOMETRIC_PRESENTATION_REPRESENTATION (  '', ( #169 ), #294 ) ;
#252 = CARTESIAN_POINT ( 'NONE',  ( -0.2000000000000005107, 0.05999999999999994227, 0.5999999999999998668 ) ) ;
#253 = LINE ( 'NONE', #736, #136 ) ;
#254 = EDGE_LOOP ( 'NONE', ( #443, #71, #750 ) ) ;
#255 = CARTESIAN_POINT ( 'NONE',  ( 0.09322921747968655748, 0.05999999999999994227, -0.6000000000000003109 ) ) ;
#256 = ADVANCED_FACE ( 'NONE', ( #725 ), #233, .T. ) ;
#257 = UNCERTAINTY_MEASURE_WITH_UNIT (LENGTH_MEASURE( 1.000000000000000082E-05 ), #487, 'distance_accuracy_value', 'NONE');
#258 =( NAMED_UNIT ( * ) SI_UNIT ( $, .STERADIAN. ) SOLID_ANGLE_UNIT ( ) );
#259 = FACE_OUTER_BOUND ( 'NONE', #351, .T. ) ;
#260 = AXIS2_PLACEMENT_3D ( 'NONE', #17, #778, #221 ) ;
#261 = ORIENTED_EDGE ( 'NONE', *, *, #550, .F. ) ;
#262 = CARTESIAN_POINT ( 'NONE',  ( 0.4949999999999988853, -1.873018953454556268, -0.7950000000000005951 ) ) ;
#263 = ORIENTED_EDGE ( 'NONE', *, *, #237, .F. ) ;
#264 = DIRECTION ( 'NONE',  ( 0.0000000000000000000, 0.0000000000000000000, -1.000000000000000000 ) ) ;
#265 = AXIS2_PLACEMENT_3D ( 'NONE', #811, #249, #43 ) ;
#266 = SURFACE_SIDE_STYLE ('',( #786 ) ) ;
#267 = DIRECTION ( 'NONE',  ( 0.0000000000000000000, 1.000000000000000000, 0.0000000000000000000 ) ) ;
#268 = DIRECTION ( 'NONE',  ( 0.0000000000000000000, -0.0000000000000000000, 1.000000000000000000 ) ) ;
#269 = EDGE_CURVE ( 'NONE', #325, #140, #686, .T. ) ;
#270 = CIRCLE ( 'NONE', #437, 0.1249999999999999445 ) ;
#271 = FILL_AREA_STYLE ('',( #78 ) ) ;
#272 = ORIENTED_EDGE ( 'NONE', *, *, #668, .T. ) ;
#273 = AXIS2_PLACEMENT_3D ( 'NONE', #540, #418, #229 ) ;
#274 = ORIENTED_EDGE ( 'NONE', *, *, #506, .F. ) ;
#275 = FACE_OUTER_BOUND ( 'NONE', #618, .T. ) ;
#276 = DIRECTION ( 'NONE',  ( 0.0000000000000000000, 1.000000000000000000, 0.0000000000000000000 ) ) ;
#277 = ADVANCED_FACE ( 'NONE', ( #214 ), #814, .F. ) ;
#278 = EDGE_CURVE ( 'NONE', #623, #490, #347, .T. ) ;
#279 = CARTESIAN_POINT ( 'NONE',  ( -0.2000000000000005107, -5.421010862427522170E-17, -0.6000000000000003109 ) ) ;
#280 = AXIS2_PLACEMENT_3D ( 'NONE', #538, #536, #420 ) ;
#281 = AXIS2_PLACEMENT_3D ( 'NONE', #591, #409, #80 ) ;
#282 = SPHERICAL_SURFACE ( 'NONE', #770, 0.1249999999999999445 ) ;
#283 = VERTEX_POINT ( 'NONE', #122 ) ;
#284 = ORIENTED_EDGE ( 'NONE', *, *, #226, .T. ) ;
#285 = CARTESIAN_POINT ( 'NONE',  ( 0.1999999999999996503, 0.1249999999999998890, -0.6000000000000003109 ) ) ;
#286 = MECHANICAL_DESIGN_GEOMETRIC_PRESENTATION_REPRESENTATION (  '', ( #655 ), #385 ) ;
#287 = DIRECTION ( 'NONE',  ( 0.0000000000000000000, 0.0000000000000000000, -1.000000000000000000 ) ) ;
#288 = DIRECTION ( 'NONE',  ( 0.0000000000000000000, 0.0000000000000000000, -1.000000000000000000 ) ) ;
#289 = LINE ( 'NONE', #479, #311 ) ;
#290 = EDGE_LOOP ( 'NONE', ( #804, #60, #335 ) ) ;
#291 = DIRECTION ( 'NONE',  ( 0.0000000000000000000, 0.0000000000000000000, -1.000000000000000000 ) ) ;
#292 =( GEOMETRIC_REPRESENTATION_CONTEXT ( 3 ) GLOBAL_UNCERTAINTY_ASSIGNED_CONTEXT ( ( #361 ) ) GLOBAL_UNIT_ASSIGNED_CONTEXT ( ( #387, #63, #132 ) ) REPRESENTATION_CONTEXT ( 'NONE', 'WORKASPACE' ) );
#293 = EDGE_LOOP ( 'NONE', ( #224, #48, #593, #728 ) ) ;
#294 =( GEOMETRIC_REPRESENTATION_CONTEXT ( 3 ) GLOBAL_UNCERTAINTY_ASSIGNED_CONTEXT ( ( #42 ) ) GLOBAL_UNIT_ASSIGNED_CONTEXT ( ( #790, #602, #489 ) ) REPRESENTATION_CONTEXT ( 'NONE', 'WORKASPACE' ) );
#295 = FACE_OUTER_BOUND ( 'NONE', #92, .T. ) ;
#296 = DIRECTION ( 'NONE',  ( 0.0000000000000000000, 0.0000000000000000000, -1.000000000000000000 ) ) ;
#297 = PRESENTATION_LAYER_ASSIGNMENT (  '', '', ( #87 ) ) ;
#298 = CARTESIAN_POINT ( 'NONE',  ( 0.1999999999999996503, 0.1249999999999998890, 0.5999999999999998668 ) ) ;
#299 = FACE_OUTER_BOUND ( 'NONE', #462, .T. ) ;
#300 = CARTESIAN_POINT ( 'NONE',  ( -0.2000000000000005107, 0.1249999999999998890, -0.6000000000000003109 ) ) ;
#301 = LINE ( 'NONE', #101, #423 ) ;
#302 = VERTEX_POINT ( 'NONE', #255 ) ;
#303 = MECHANICAL_DESIGN_GEOMETRIC_PRESENTATION_REPRESENTATION (  '', ( #734 ), #7 ) ;
#304 = DIRECTION ( 'NONE',  ( 1.000000000000000000, 0.0000000000000000000, 0.0000000000000000000 ) ) ;
#305 = FACE_OUTER_BOUND ( 'NONE', #254, .T. ) ;
#306 = CARTESIAN_POINT ( 'NONE',  ( 0.1999999999999996503, -5.421010862427522170E-17, 0.5999999999999998668 ) ) ;
#307 = MECHANICAL_DESIGN_GEOMETRIC_PRESENTATION_REPRESENTATION (  '', ( #516 ), #292 ) ;
#308 = DIRECTION ( 'NONE',  ( 0.0000000000000000000, 0.0000000000000000000, -1.000000000000000000 ) ) ;
#309 = PLANE ( 'NONE',  #520 ) ;
#310 = MECHANICAL_DESIGN_GEOMETRIC_PRESENTATION_REPRESENTATION (  '', ( #87 ), #449 ) ;
#311 = VECTOR ( 'NONE', #721, 1000.000000000000000 ) ;
#312 = ORIENTED_EDGE ( 'NONE', *, *, #120, .F. ) ;
#313 = VERTEX_POINT ( 'NONE', #568 ) ;
#314 = SPHERICAL_SURFACE ( 'NONE', #659, 0.1249999999999999445 ) ;
#315 = AXIS2_PLACEMENT_3D ( 'NONE', #677, #189, #680 ) ;
#316 = ADVANCED_FACE ( 'NONE', ( #321 ), #512, .T. ) ;
#317 = SURFACE_SIDE_STYLE ('',( #216 ) ) ;
#318 = MANIFOLD_SOLID_BREP ( 'Sketch-Pattern1[4]', #431 ) ;
#319 = EDGE_CURVE ( 'NONE', #302, #455, #151, .T. ) ;
#320 = ADVANCED_FACE ( 'NONE', ( #823 ), #67, .T. ) ;
#321 = FACE_OUTER_BOUND ( 'NONE', #404, .T. ) ;
#322 = FACE_OUTER_BOUND ( 'NONE', #718, .T. ) ;
#323 =( NAMED_UNIT ( * ) PLANE_ANGLE_UNIT ( ) SI_UNIT ( $, .RADIAN. ) );
#324 = EDGE_LOOP ( 'NONE', ( #388, #139, #126 ) ) ;
#325 = VERTEX_POINT ( 'NONE', #461 ) ;
#326 = DIRECTION ( 'NONE',  ( 0.0000000000000000000, 0.0000000000000000000, -1.000000000000000000 ) ) ;
#327 = ADVANCED_FACE ( 'NONE', ( #88 ), #695, .F. ) ;
#328 = AXIS2_PLACEMENT_3D ( 'NONE', #471, #658, #145 ) ;
#329 = CARTESIAN_POINT ( 'NONE',  ( 0.1999999999999996503, 0.05999999999999994227, 0.5999999999999998668 ) ) ;
#330 = AXIS2_PLACEMENT_3D ( 'NONE', #664, #596, #544 ) ;
#331 = SURFACE_SIDE_STYLE ('',( #541 ) ) ;
#332 = CARTESIAN_POINT ( 'NONE',  ( 0.1999999999999996503, 0.05999999999999994227, -0.6000000000000003109 ) ) ;
#333 = CIRCLE ( 'NONE', #832, 0.1249999999999999445 ) ;
#334 = AXIS2_PLACEMENT_3D ( 'NONE', #170, #296, #488 ) ;
#335 = ORIENTED_EDGE ( 'NONE', *, *, #120, .T. ) ;
#336 = ORIENTED_EDGE ( 'NONE', *, *, #85, .T. ) ;
#337 = DIRECTION ( 'NONE',  ( 1.000000000000000000, 0.0000000000000000000, 0.0000000000000000000 ) ) ;
#338 = SURFACE_STYLE_FILL_AREA ( #729 ) ;
#339 = VECTOR ( 'NONE', #532, 1000.000000000000000 ) ;
#340 = EDGE_CURVE ( 'NONE', #518, #617, #459, .T. ) ;
#341 = CARTESIAN_POINT ( 'NONE',  ( 0.4949999999999988853, 0.05999999999999994227, -0.7950000000000005951 ) ) ;
#342 = SPHERICAL_SURFACE ( 'NONE', #626, 0.1249999999999999445 ) ;
#343 = AXIS2_PLACEMENT_3D ( 'NONE', #212, #144, #585 ) ;
#344 = DIRECTION ( 'NONE',  ( -1.000000000000000000, 0.0000000000000000000, 0.0000000000000000000 ) ) ;
#345 = DIRECTION ( 'NONE',  ( -0.0000000000000000000, -1.000000000000000000, -0.0000000000000000000 ) ) ;
#346 = ADVANCED_FACE ( 'NONE', ( #702 ), #342, .T. ) ;
#347 = LINE ( 'NONE', #577, #178 ) ;
#348 = SURFACE_SIDE_STYLE ('',( #446 ) ) ;
#349 = ORIENTED_EDGE ( 'NONE', *, *, #167, .T. ) ;
#350 = EDGE_LOOP ( 'NONE', ( #106, #36, #803, #633 ) ) ;
#351 = EDGE_LOOP ( 'NONE', ( #164, #583, #10 ) ) ;
#352 = DIRECTION ( 'NONE',  ( 0.0000000000000000000, 0.0000000000000000000, -1.000000000000000000 ) ) ;
#353 = DIRECTION ( 'NONE',  ( 0.0000000000000000000, 0.0000000000000000000, -1.000000000000000000 ) ) ;
#354 = DIRECTION ( 'NONE',  ( 0.0000000000000000000, 0.0000000000000000000, -1.000000000000000000 ) ) ;
#355 = SURFACE_STYLE_FILL_AREA ( #184 ) ;
#356 = PRESENTATION_STYLE_ASSIGNMENT (( #755 ) ) ;
#357 = DIRECTION ( 'NONE',  ( -1.000000000000000000, 0.0000000000000000000, 0.0000000000000000000 ) ) ;
#358 = EDGE_LOOP ( 'NONE', ( #244, #493 ) ) ;
#359 = AXIS2_PLACEMENT_3D ( 'NONE', #436, #99, #674 ) ;
#360 = SPHERICAL_SURFACE ( 'NONE', #273, 0.1249999999999999445 ) ;
#361 = UNCERTAINTY_MEASURE_WITH_UNIT (LENGTH_MEASURE( 1.000000000000000082E-05 ), #387, 'distance_accuracy_value', 'NONE');
#362 = PRESENTATION_STYLE_ASSIGNMENT (( #517 ) ) ;
#363 = DIRECTION ( 'NONE',  ( 0.0000000000000000000, 0.0000000000000000000, 1.000000000000000000 ) ) ;
#364 = SURFACE_STYLE_USAGE ( .BOTH. , #86 ) ;
#365 = FACE_OUTER_BOUND ( 'NONE', #358, .T. ) ;
#366 = VERTEX_POINT ( 'NONE', #768 ) ;
#367 = DIRECTION ( 'NONE',  ( -0.0000000000000000000, 0.0000000000000000000, 1.000000000000000000 ) ) ;
#368 = AXIS2_PLACEMENT_3D ( 'NONE', #696, #137, #834 ) ;
#369 = VERTEX_POINT ( 'NONE', #391 ) ;
#370 = STYLED_ITEM ( 'NONE', ( #133 ), #500 ) ;
#371 = EDGE_LOOP ( 'NONE', ( #643, #560, #673 ) ) ;
#372 = DIRECTION ( 'NONE',  ( 0.0000000000000000000, 1.000000000000000000, 0.0000000000000000000 ) ) ;
#373 = SURFACE_STYLE_USAGE ( .BOTH. , #616 ) ;
#374 = AXIS2_PLACEMENT_3D ( 'NONE', #526, #232, #291 ) ;
#375 = CARTESIAN_POINT ( 'NONE',  ( 0.4949999999999988853, 0.05999999999999994227, 0.7949999999999997069 ) ) ;
#376 = SPHERICAL_SURFACE ( 'NONE', #328, 0.1249999999999999445 ) ;
#377 = DIRECTION ( 'NONE',  ( 0.0000000000000000000, 1.000000000000000000, 0.0000000000000000000 ) ) ;
#378 = EDGE_LOOP ( 'NONE', ( #263, #112, #699 ) ) ;
#379 = ORIENTED_EDGE ( 'NONE', *, *, #607, .F. ) ;
#380 = FILL_AREA_STYLE_COLOUR ( '', #18 ) ;
#381 = VECTOR ( 'NONE', #372, 1000.000000000000000 ) ;
#382 = CARTESIAN_POINT ( 'NONE',  ( -0.4950000000000008837, 0.05999999999999994227, -0.7950000000000005951 ) ) ;
#383 = FACE_OUTER_BOUND ( 'NONE', #371, .T. ) ;
#384 = AXIS2_PLACEMENT_3D ( 'NONE', #709, #594, #149 ) ;
#385 =( GEOMETRIC_REPRESENTATION_CONTEXT ( 3 ) GLOBAL_UNCERTAINTY_ASSIGNED_CONTEXT ( ( #525 ) ) GLOBAL_UNIT_ASSIGNED_CONTEXT ( ( #700, #323, #692 ) ) REPRESENTATION_CONTEXT ( 'NONE', 'WORKASPACE' ) );
#386 = VERTEX_POINT ( 'NONE', #450 ) ;
#387 =( LENGTH_UNIT ( ) NAMED_UNIT ( * ) SI_UNIT ( .MILLI., .METRE. ) );
#388 = ORIENTED_EDGE ( 'NONE', *, *, #799, .F. ) ;
#389 = PRESENTATION_STYLE_ASSIGNMENT (( #589 ) ) ;
#390 = DIRECTION ( 'NONE',  ( 0.0000000000000000000, -1.000000000000000000, -0.0000000000000000000 ) ) ;
#391 = CARTESIAN_POINT ( 'NONE',  ( -0.4950000000000006617, 0.4214999999999999858, -0.7950000000000005951 ) ) ;
#392 = STYLED_ITEM ( 'NONE', ( #362 ), #318 ) ;
#393 = ADVANCED_FACE ( 'NONE', ( #299 ), #635, .F. ) ;
#394 = DIRECTION ( 'NONE',  ( 0.0000000000000000000, 0.0000000000000000000, -1.000000000000000000 ) ) ;
#395 = EDGE_LOOP ( 'NONE', ( #312, #576 ) ) ;
#396 = ORIENTED_EDGE ( 'NONE', *, *, #269, .F. ) ;
#397 = AXIS2_PLACEMENT_3D ( 'NONE', #162, #96, #175 ) ;
#398 = SURFACE_STYLE_USAGE ( .BOTH. , #266 ) ;
#399 = PLANE ( 'NONE',  #250 ) ;
#400 = DIRECTION ( 'NONE',  ( 0.0000000000000000000, 0.0000000000000000000, -1.000000000000000000 ) ) ;
#401 = CARTESIAN_POINT ( 'NONE',  ( -0.2000000000000005107, 0.05999999999999994227, 0.1999999999999996503 ) ) ;
#402 = VECTOR ( 'NONE', #713, 1000.000000000000000 ) ;
#403 = COLOUR_RGB ( '',0.7921568627450980005, 0.8196078431372548767, 0.9333333333333333481 ) ;
#404 = EDGE_LOOP ( 'NONE', ( #781, #645, #509, #559 ) ) ;
#405 = LINE ( 'NONE', #735, #381 ) ;
#406 = CARTESIAN_POINT ( 'NONE',  ( 0.4949999999999988853, 0.05999999999999994227, 0.7949999999999997069 ) ) ;
#407 =( GEOMETRIC_REPRESENTATION_CONTEXT ( 3 ) GLOBAL_UNCERTAINTY_ASSIGNED_CONTEXT ( ( #581 ) ) GLOBAL_UNIT_ASSIGNED_CONTEXT ( ( #466, #157, #21 ) ) REPRESENTATION_CONTEXT ( 'NONE', 'WORKASPACE' ) );
#408 = MANIFOLD_SOLID_BREP ( 'Boss-Extrude1', #681 ) ;
#409 = DIRECTION ( 'NONE',  ( -0.0000000000000000000, -1.000000000000000000, -0.0000000000000000000 ) ) ;
#410 = DIRECTION ( 'NONE',  ( 0.0000000000000000000, 0.0000000000000000000, -1.000000000000000000 ) ) ;
#411 = PLANE ( 'NONE',  #384 ) ;
#412 = PRESENTATION_LAYER_ASSIGNMENT (  '', '', ( #516 ) ) ;
#413 =( NAMED_UNIT ( * ) PLANE_ANGLE_UNIT ( ) SI_UNIT ( $, .RADIAN. ) );
#414 = CLOSED_SHELL ( 'NONE', ( #746, #327, #567 ) ) ;
#415 = ORIENTED_EDGE ( 'NONE', *, *, #601, .F. ) ;
#416 = DIRECTION ( 'NONE',  ( -0.0000000000000000000, -1.000000000000000000, -0.0000000000000000000 ) ) ;
#417 = PRODUCT ( 'IS31FL3194-CLS2-TR', 'IS31FL3194-CLS2-TR', '', ( #497 ) ) ;
#418 = DIRECTION ( 'NONE',  ( 0.0000000000000000000, 0.0000000000000000000, -1.000000000000000000 ) ) ;
#419 = AXIS2_PLACEMENT_3D ( 'NONE', #285, #354, #787 ) ;
#420 = DIRECTION ( 'NONE',  ( 0.0000000000000000000, 0.0000000000000000000, -1.000000000000000000 ) ) ;
#421 = EDGE_CURVE ( 'NONE', #689, #455, #684, .T. ) ;
#422 = CIRCLE ( 'NONE', #535, 0.1067707825203130789 ) ;
#423 = VECTOR ( 'NONE', #552, 1000.000000000000000 ) ;
#424 = AXIS2_PLACEMENT_3D ( 'NONE', #152, #464, #288 ) ;
#425 = CARTESIAN_POINT ( 'NONE',  ( 0.1999999999999996503, 0.1249999999999998890, 0.1999999999999996503 ) ) ;
#426 = EDGE_LOOP ( 'NONE', ( #510, #672, #451, #666 ) ) ;
#427 =( LENGTH_UNIT ( ) NAMED_UNIT ( * ) SI_UNIT ( .MILLI., .METRE. ) );
#428 = APPLICATION_PROTOCOL_DEFINITION ( 'draft international standard', 'automotive_design', 1998, #107 ) ;
#429 = CIRCLE ( 'NONE', #66, 0.1249999999999999445 ) ;
#430 = DIRECTION ( 'NONE',  ( 1.224646799147353207E-16, 0.0000000000000000000, -1.000000000000000000 ) ) ;
#431 = CLOSED_SHELL ( 'NONE', ( #508, #115, #346 ) ) ;
#432 = AXIS2_PLACEMENT_3D ( 'NONE', #579, #276, #714 ) ;
#433 = SURFACE_SIDE_STYLE ('',( #435 ) ) ;
#434 = ORIENTED_EDGE ( 'NONE', *, *, #601, .T. ) ;
#435 = SURFACE_STYLE_FILL_AREA ( #807 ) ;
#436 = CARTESIAN_POINT ( 'NONE',  ( 0.0000000000000000000, 0.0000000000000000000, 0.0000000000000000000 ) ) ;
#437 = AXIS2_PLACEMENT_3D ( 'NONE', #181, #447, #685 ) ;
#438 = DIRECTION ( 'NONE',  ( 1.000000000000000000, 0.0000000000000000000, 0.0000000000000000000 ) ) ;
#439 = DIRECTION ( 'NONE',  ( 5.455105270367317374E-16, 0.0000000000000000000, 1.000000000000000000 ) ) ;
#440 = CARTESIAN_POINT ( 'NONE',  ( -0.2000000000000005107, 0.1249999999999998890, -0.2000000000000000944 ) ) ;
#441 = DIRECTION ( 'NONE',  ( 0.0000000000000000000, 0.0000000000000000000, -1.000000000000000000 ) ) ;
#442 = SPHERICAL_SURFACE ( 'NONE', #334, 0.1249999999999999445 ) ;
#443 = ORIENTED_EDGE ( 'NONE', *, *, #90, .F. ) ;
#444 = VERTEX_POINT ( 'NONE', #572 ) ;
#445 = SPHERICAL_SURFACE ( 'NONE', #330, 0.1249999999999999445 ) ;
#446 = SURFACE_STYLE_FILL_AREA ( #271 ) ;
#447 = DIRECTION ( 'NONE',  ( 1.224646799147353207E-16, 0.0000000000000000000, -1.000000000000000000 ) ) ;
#448 = AXIS2_PLACEMENT_3D ( 'NONE', #467, #353, #75 ) ;
#449 =( GEOMETRIC_REPRESENTATION_CONTEXT ( 3 ) GLOBAL_UNCERTAINTY_ASSIGNED_CONTEXT ( ( #766 ) ) GLOBAL_UNIT_ASSIGNED_CONTEXT ( ( #427, #176, #102 ) ) REPRESENTATION_CONTEXT ( 'NONE', 'WORKASPACE' ) );
#450 = CARTESIAN_POINT ( 'NONE',  ( 0.4949999999999988853, 0.4214999999999999858, -0.7950000000000005951 ) ) ;
#451 = ORIENTED_EDGE ( 'NONE', *, *, #187, .F. ) ;
#452 = CARTESIAN_POINT ( 'NONE',  ( -0.09322921747968743178, 0.05999999999999994227, -0.6000000000000003109 ) ) ;
#453 = CLOSED_SHELL ( 'NONE', ( #131, #45, #8 ) ) ;
#454 = AXIS2_PLACEMENT_3D ( 'NONE', #228, #788, #603 ) ;
#455 = VERTEX_POINT ( 'NONE', #690 ) ;
#456 = FACE_OUTER_BOUND ( 'NONE', #207, .T. ) ;
#457 = DIRECTION ( 'NONE',  ( -1.000000000000000000, 0.0000000000000000000, -0.0000000000000000000 ) ) ;
#458 = FILL_AREA_STYLE_COLOUR ( '', #599 ) ;
#459 = CIRCLE ( 'NONE', #223, 0.1067707825203130373 ) ;
#460 = LINE ( 'NONE', #588, #527 ) ;
#461 = CARTESIAN_POINT ( 'NONE',  ( -0.2000000000000005107, -5.421010862427522170E-17, -0.2000000000000000944 ) ) ;
#462 = EDGE_LOOP ( 'NONE', ( #484, #472 ) ) ;
#463 = AXIS2_PLACEMENT_3D ( 'NONE', #769, #772, #830 ) ;
#464 = DIRECTION ( 'NONE',  ( 0.0000000000000000000, -1.000000000000000000, -0.0000000000000000000 ) ) ;
#465 = AXIS2_PLACEMENT_3D ( 'NONE', #300, #235, #230 ) ;
#466 =( LENGTH_UNIT ( ) NAMED_UNIT ( * ) SI_UNIT ( .MILLI., .METRE. ) );
#467 = CARTESIAN_POINT ( 'NONE',  ( 0.1999999999999996503, 0.1249999999999998890, -0.6000000000000003109 ) ) ;
#468 = MANIFOLD_SOLID_BREP ( 'Sketch-Pattern1[7]', #13 ) ;
#469 = EDGE_CURVE ( 'NONE', #26, #617, #41, .T. ) ;
#470 = ADVANCED_FACE ( 'NONE', ( #478 ), #519, .F. ) ;
#471 = CARTESIAN_POINT ( 'NONE',  ( -0.2000000000000005107, 0.1249999999999998890, 0.1999999999999996503 ) ) ;
#472 = ORIENTED_EDGE ( 'NONE', *, *, #726, .F. ) ;
#473 = ORIENTED_EDGE ( 'NONE', *, *, #35, .T. ) ;
#474 = PLANE ( 'NONE',  #424 ) ;
#475 = ORIENTED_EDGE ( 'NONE', *, *, #202, .F. ) ;
#476 = CARTESIAN_POINT ( 'NONE',  ( 0.09322921747968655748, 0.05999999999999994227, 0.5999999999999998668 ) ) ;
#477 = AXIS2_PLACEMENT_3D ( 'NONE', #534, #703, #410 ) ;
#478 = FACE_OUTER_BOUND ( 'NONE', #566, .T. ) ;
#479 = CARTESIAN_POINT ( 'NONE',  ( 0.4949999999999988853, 0.4214999999999999858, 0.7949999999999997069 ) ) ;
#480 = EDGE_CURVE ( 'NONE', #774, #444, #667, .T. ) ;
#481 = CARTESIAN_POINT ( 'NONE',  ( 0.1999999999999996503, -5.421010862427522170E-17, -0.6000000000000003109 ) ) ;
#482 = CIRCLE ( 'NONE', #454, 0.1249999999999999445 ) ;
#483 = EDGE_LOOP ( 'NONE', ( #155, #415 ) ) ;
#484 = ORIENTED_EDGE ( 'NONE', *, *, #35, .F. ) ;
#485 = DIRECTION ( 'NONE',  ( 0.0000000000000000000, 0.0000000000000000000, -1.000000000000000000 ) ) ;
#486 = CIRCLE ( 'NONE', #315, 0.1067707825203130373 ) ;
#487 =( LENGTH_UNIT ( ) NAMED_UNIT ( * ) SI_UNIT ( .MILLI., .METRE. ) );
#488 = DIRECTION ( 'NONE',  ( 1.000000000000000000, 0.0000000000000000000, 0.0000000000000000000 ) ) ;
#489 =( NAMED_UNIT ( * ) SI_UNIT ( $, .STERADIAN. ) SOLID_ANGLE_UNIT ( ) );
#490 = VERTEX_POINT ( 'NONE', #6 ) ;
#491 = PRESENTATION_LAYER_ASSIGNMENT (  '', '', ( #392 ) ) ;
#492 = EDGE_LOOP ( 'NONE', ( #274, #748, #20 ) ) ;
#493 = ORIENTED_EDGE ( 'NONE', *, *, #58, .F. ) ;
#494 = FACE_OUTER_BOUND ( 'NONE', #737, .T. ) ;
#495 = CARTESIAN_POINT ( 'NONE',  ( 0.09322921747968655748, 0.05999999999999994227, 0.1999999999999996503 ) ) ;
#496 = AXIS2_PLACEMENT_3D ( 'NONE', #29, #188, #308 ) ;
#497 = PRODUCT_CONTEXT ( 'NONE', #613, 'mechanical' ) ;
#498 = DIRECTION ( 'NONE',  ( 0.0000000000000000000, 0.0000000000000000000, -1.000000000000000000 ) ) ;
#499 = ORIENTED_EDGE ( 'NONE', *, *, #134, .F. ) ;
#500 = MANIFOLD_SOLID_BREP ( 'Sketch-Pattern1[5]', #793 ) ;
#501 = CIRCLE ( 'NONE', #30, 0.1067707825203130789 ) ;
#502 = EDGE_CURVE ( 'NONE', #140, #531, #129, .T. ) ;
#503 = PRESENTATION_LAYER_ASSIGNMENT (  '', '', ( #655 ) ) ;
#504 = ADVANCED_FACE ( 'NONE', ( #305 ), #647, .T. ) ;
#505 = VECTOR ( 'NONE', #367, 1000.000000000000000 ) ;
#506 = EDGE_CURVE ( 'NONE', #546, #190, #238, .T. ) ;
#507 = VERTEX_POINT ( 'NONE', #279 ) ;
#508 = ADVANCED_FACE ( 'NONE', ( #39 ), #549, .T. ) ;
#509 = ORIENTED_EDGE ( 'NONE', *, *, #705, .F. ) ;
#510 = ORIENTED_EDGE ( 'NONE', *, *, #584, .F. ) ;
#511 =( NAMED_UNIT ( * ) PLANE_ANGLE_UNIT ( ) SI_UNIT ( $, .RADIAN. ) );
#512 = PLANE ( 'NONE',  #637 ) ;
#513 = PRESENTATION_LAYER_ASSIGNMENT (  '', '', ( #370 ) ) ;
#514 =( LENGTH_UNIT ( ) NAMED_UNIT ( * ) SI_UNIT ( .MILLI., .METRE. ) );
#515 = CIRCLE ( 'NONE', #368, 0.1067707825203130928 ) ;
#516 = STYLED_ITEM ( 'NONE', ( #356 ), #56 ) ;
#517 = SURFACE_STYLE_USAGE ( .BOTH. , #331 ) ;
#518 = VERTEX_POINT ( 'NONE', #476 ) ;
#519 = PLANE ( 'NONE',  #432 ) ;
#520 = AXIS2_PLACEMENT_3D ( 'NONE', #31, #744, #439 ) ;
#521 = DIRECTION ( 'NONE',  ( 0.0000000000000000000, 0.0000000000000000000, -1.000000000000000000 ) ) ;
#522 = COLOUR_RGB ( '',0.7921568627450980005, 0.8196078431372548767, 0.9333333333333333481 ) ;
#523 = CARTESIAN_POINT ( 'NONE',  ( 0.1999999999999996503, 0.1249999999999998890, -0.6000000000000003109 ) ) ;
#524 = CARTESIAN_POINT ( 'NONE',  ( 0.1999999999999996503, 0.1249999999999998890, -0.2000000000000000944 ) ) ;
#525 = UNCERTAINTY_MEASURE_WITH_UNIT (LENGTH_MEASURE( 1.000000000000000082E-05 ), #700, 'distance_accuracy_value', 'NONE');
#526 = CARTESIAN_POINT ( 'NONE',  ( 0.1999999999999996503, 0.05999999999999994227, -0.6000000000000003109 ) ) ;
#527 = VECTOR ( 'NONE', #215, 1000.000000000000000 ) ;
#528 = DIRECTION ( 'NONE',  ( 1.000000000000000000, 0.0000000000000000000, 0.0000000000000000000 ) ) ;
#529 = EDGE_LOOP ( 'NONE', ( #764, #166, #824 ) ) ;
#530 = ORIENTED_EDGE ( 'NONE', *, *, #319, .T. ) ;
#531 = VERTEX_POINT ( 'NONE', #82 ) ;
#532 = DIRECTION ( 'NONE',  ( -1.000000000000000000, 0.0000000000000000000, 0.0000000000000000000 ) ) ;
#533 = MECHANICAL_DESIGN_GEOMETRIC_PRESENTATION_REPRESENTATION (  '', ( #392 ), #407 ) ;
#534 = CARTESIAN_POINT ( 'NONE',  ( 0.1999999999999996503, 0.05999999999999994227, 0.1999999999999996503 ) ) ;
#535 = AXIS2_PLACEMENT_3D ( 'NONE', #555, #34, #611 ) ;
#536 = DIRECTION ( 'NONE',  ( -0.0000000000000000000, -1.000000000000000000, -0.0000000000000000000 ) ) ;
#537 = MANIFOLD_SOLID_BREP ( 'Sketch-Pattern1[1]', #652 ) ;
#538 = CARTESIAN_POINT ( 'NONE',  ( -0.2000000000000005107, 0.05999999999999994227, -0.6000000000000003109 ) ) ;
#539 = ORIENTED_EDGE ( 'NONE', *, *, #211, .F. ) ;
#540 = CARTESIAN_POINT ( 'NONE',  ( -0.2000000000000005107, 0.1249999999999998890, -0.2000000000000000944 ) ) ;
#541 = SURFACE_STYLE_FILL_AREA ( #698 ) ;
#542 = EDGE_CURVE ( 'NONE', #816, #313, #711, .T. ) ;
#543 =( GEOMETRIC_REPRESENTATION_CONTEXT ( 3 ) GLOBAL_UNCERTAINTY_ASSIGNED_CONTEXT ( ( #551 ) ) GLOBAL_UNIT_ASSIGNED_CONTEXT ( ( #69, #141, #580 ) ) REPRESENTATION_CONTEXT ( 'NONE', 'WORKASPACE' ) );
#544 = DIRECTION ( 'NONE',  ( 1.000000000000000000, 0.0000000000000000000, 0.0000000000000000000 ) ) ;
#545 = CIRCLE ( 'NONE', #694, 0.1249999999999999445 ) ;
#546 = VERTEX_POINT ( 'NONE', #15 ) ;
#547 = SURFACE_STYLE_USAGE ( .BOTH. , #433 ) ;
#548 = FACE_OUTER_BOUND ( 'NONE', #236, .T. ) ;
#549 = SPHERICAL_SURFACE ( 'NONE', #260, 0.1249999999999999445 ) ;
#550 = EDGE_CURVE ( 'NONE', #93, #825, #501, .T. ) ;
#551 = UNCERTAINTY_MEASURE_WITH_UNIT (LENGTH_MEASURE( 1.000000000000000082E-05 ), #69, 'distance_accuracy_value', 'NONE');
#552 = DIRECTION ( 'NONE',  ( 0.0000000000000000000, 1.000000000000000000, 0.0000000000000000000 ) ) ;
#553 = DIRECTION ( 'NONE',  ( 0.0000000000000000000, 0.0000000000000000000, -1.000000000000000000 ) ) ;
#554 =( NAMED_UNIT ( * ) SI_UNIT ( $, .STERADIAN. ) SOLID_ANGLE_UNIT ( ) );
#555 = CARTESIAN_POINT ( 'NONE',  ( -0.2000000000000005107, 0.05999999999999994227, 0.1999999999999996503 ) ) ;
#556 = CARTESIAN_POINT ( 'NONE',  ( 0.0000000000000000000, 0.4214999999999999858, 0.0000000000000000000 ) ) ;
#557 = LINE ( 'NONE', #732, #505 ) ;
#558 = AXIS2_PLACEMENT_3D ( 'NONE', #660, #345, #352 ) ;
#559 = ORIENTED_EDGE ( 'NONE', *, *, #242, .F. ) ;
#560 = ORIENTED_EDGE ( 'NONE', *, *, #469, .T. ) ;
#561 = PRESENTATION_STYLE_ASSIGNMENT (( #364 ) ) ;
#562 = DIRECTION ( 'NONE',  ( 1.224646799147353207E-16, 0.0000000000000000000, -1.000000000000000000 ) ) ;
#563 = AXIS2_PLACEMENT_3D ( 'NONE', #523, #77, #16 ) ;
#564 = FILL_AREA_STYLE_COLOUR ( '', #403 ) ;
#565 = CIRCLE ( 'NONE', #97, 0.1067707825203130373 ) ;
#566 = EDGE_LOOP ( 'NONE', ( #717, #630, #650, #246 ) ) ;
#567 = ADVANCED_FACE ( 'NONE', ( #383 ), #168, .T. ) ;
#568 = CARTESIAN_POINT ( 'NONE',  ( 0.4949999999999988853, 0.05999999999999994227, -0.7950000000000008171 ) ) ;
#569 = DIRECTION ( 'NONE',  ( 0.0000000000000000000, 0.0000000000000000000, -1.000000000000000000 ) ) ;
#570 = AXIS2_PLACEMENT_3D ( 'NONE', #332, #204, #762 ) ;
#571 = PRODUCT_DEFINITION ( 'UNKNOWN', '', #620, #789 ) ;
#572 = CARTESIAN_POINT ( 'NONE',  ( 0.3067707825203127570, 0.05999999999999994227, 0.1999999999999996503 ) ) ;
#573 = ADVANCED_FACE ( 'NONE', ( #657 ), #474, .F. ) ;
#574 = LINE ( 'NONE', #638, #402 ) ;
#575 = ORIENTED_EDGE ( 'NONE', *, *, #319, .F. ) ;
#576 = ORIENTED_EDGE ( 'NONE', *, *, #480, .F. ) ;
#577 = CARTESIAN_POINT ( 'NONE',  ( -0.4949999999999997735, -1.873018953454556268, 0.7949999999999997069 ) ) ;
#578 = DIRECTION ( 'NONE',  ( 1.000000000000000000, 0.0000000000000000000, 0.0000000000000000000 ) ) ;
#579 = CARTESIAN_POINT ( 'NONE',  ( 0.0000000000000000000, 0.05999999999999999778, 0.0000000000000000000 ) ) ;
#580 =( NAMED_UNIT ( * ) SI_UNIT ( $, .STERADIAN. ) SOLID_ANGLE_UNIT ( ) );
#581 = UNCERTAINTY_MEASURE_WITH_UNIT (LENGTH_MEASURE( 1.000000000000000082E-05 ), #466, 'distance_accuracy_value', 'NONE');
#582 = CARTESIAN_POINT ( 'NONE',  ( 0.4949999999999988853, -1.873018953454556268, 0.7949999999999997069 ) ) ;
#583 = ORIENTED_EDGE ( 'NONE', *, *, #237, .T. ) ;
#584 = EDGE_CURVE ( 'NONE', #195, #623, #76, .T. ) ;
#585 = DIRECTION ( 'NONE',  ( 1.000000000000000000, 0.0000000000000000000, 0.0000000000000000000 ) ) ;
#586 = PRESENTATION_LAYER_ASSIGNMENT (  '', '', ( #734 ) ) ;
#587 = PRESENTATION_STYLE_ASSIGNMENT (( #723 ) ) ;
#588 = CARTESIAN_POINT ( 'NONE',  ( -0.4949999999999997735, 0.4214999999999999858, 0.7949999999999997069 ) ) ;
#589 = SURFACE_STYLE_USAGE ( .BOTH. , #348 ) ;
#590 = SURFACE_STYLE_FILL_AREA ( #828 ) ;
#591 = CARTESIAN_POINT ( 'NONE',  ( 0.1999999999999996503, 0.05999999999999994227, 0.1999999999999996503 ) ) ;
#592 = CIRCLE ( 'NONE', #463, 0.1067707825203130928 ) ;
#593 = ORIENTED_EDGE ( 'NONE', *, *, #191, .T. ) ;
#594 = DIRECTION ( 'NONE',  ( 0.0000000000000000000, -1.000000000000000000, -0.0000000000000000000 ) ) ;
#595 = ORIENTED_EDGE ( 'NONE', *, *, #278, .T. ) ;
#596 = DIRECTION ( 'NONE',  ( 0.0000000000000000000, 0.0000000000000000000, -1.000000000000000000 ) ) ;
#597 = LINE ( 'NONE', #662, #73 ) ;
#598 = AXIS2_PLACEMENT_3D ( 'NONE', #89, #363, #173 ) ;
#599 = COLOUR_RGB ( '',0.7921568627450980005, 0.8196078431372548767, 0.9333333333333333481 ) ;
#600 = FILL_AREA_STYLE_COLOUR ( '', #52 ) ;
#601 = EDGE_CURVE ( 'NONE', #604, #105, #609, .T. ) ;
#602 =( NAMED_UNIT ( * ) PLANE_ANGLE_UNIT ( ) SI_UNIT ( $, .RADIAN. ) );
#603 = DIRECTION ( 'NONE',  ( 1.000000000000000000, 0.0000000000000000000, 0.0000000000000000000 ) ) ;
#604 = VERTEX_POINT ( 'NONE', #670 ) ;
#605 = ORIENTED_EDGE ( 'NONE', *, *, #90, .T. ) ;
#606 = CARTESIAN_POINT ( 'NONE',  ( -0.2000000000000005107, 0.1249999999999998890, -0.6000000000000003109 ) ) ;
#607 = EDGE_CURVE ( 'NONE', #59, #444, #795, .T. ) ;
#608 = FACE_OUTER_BOUND ( 'NONE', #679, .T. ) ;
#609 = CIRCLE ( 'NONE', #280, 0.1067707825203130373 ) ;
#610 =( NAMED_UNIT ( * ) PLANE_ANGLE_UNIT ( ) SI_UNIT ( $, .RADIAN. ) );
#611 = DIRECTION ( 'NONE',  ( 0.0000000000000000000, 0.0000000000000000000, -1.000000000000000000 ) ) ;
#612 = MANIFOLD_SOLID_BREP ( 'Sketch-Pattern1[3]', #708 ) ;
#613 = APPLICATION_CONTEXT ( 'automotive_design' ) ;
#614 = AXIS2_PLACEMENT_3D ( 'NONE', #130, #642, #337 ) ;
#615 = DIRECTION ( 'NONE',  ( 1.000000000000000000, 0.0000000000000000000, 0.0000000000000000000 ) ) ;
#616 = SURFACE_SIDE_STYLE ('',( #355 ) ) ;
#617 = VERTEX_POINT ( 'NONE', #160 ) ;
#618 = EDGE_LOOP ( 'NONE', ( #11, #605, #530 ) ) ;
#619 = AXIS2_PLACEMENT_3D ( 'NONE', #794, #798, #287 ) ;
#620 = PRODUCT_DEFINITION_FORMATION_WITH_SPECIFIED_SOURCE ( 'ANY', '', #417, .NOT_KNOWN. ) ;
#621 = CARTESIAN_POINT ( 'NONE',  ( 0.1999999999999996503, 0.1249999999999998890, 0.5999999999999998668 ) ) ;
#622 = FACE_OUTER_BOUND ( 'NONE', #483, .T. ) ;
#623 = VERTEX_POINT ( 'NONE', #724 ) ;
#624 = ORIENTED_EDGE ( 'NONE', *, *, #469, .F. ) ;
#625 = AXIS2_PLACEMENT_3D ( 'NONE', #192, #114, #757 ) ;
#626 = AXIS2_PLACEMENT_3D ( 'NONE', #771, #394, #578 ) ;
#627 = FILL_AREA_STYLE ('',( #564 ) ) ;
#628 = DIRECTION ( 'NONE',  ( -1.000000000000000000, 0.0000000000000000000, -2.168404344971009854E-16 ) ) ;
#629 = DIRECTION ( 'NONE',  ( 0.0000000000000000000, 0.0000000000000000000, 1.000000000000000000 ) ) ;
#630 = ORIENTED_EDGE ( 'NONE', *, *, #542, .T. ) ;
#631 = DIRECTION ( 'NONE',  ( 0.0000000000000000000, 0.0000000000000000000, 1.000000000000000000 ) ) ;
#632 = ORIENTED_EDGE ( 'NONE', *, *, #49, .T. ) ;
#633 = ORIENTED_EDGE ( 'NONE', *, *, #5, .F. ) ;
#634 = DIRECTION ( 'NONE',  ( 1.000000000000000000, 0.0000000000000000000, 0.0000000000000000000 ) ) ;
#635 = PLANE ( 'NONE',  #206 ) ;
#636 = ADVANCED_FACE ( 'NONE', ( #494 ), #701, .T. ) ;
#637 = AXIS2_PLACEMENT_3D ( 'NONE', #262, #639, #457 ) ;
#638 = CARTESIAN_POINT ( 'NONE',  ( -0.4949999999999997735, 0.05999999999999994227, 0.7949999999999997069 ) ) ;
#639 = DIRECTION ( 'NONE',  ( 0.0000000000000000000, 0.0000000000000000000, -1.000000000000000000 ) ) ;
#640 = STYLED_ITEM ( 'NONE', ( #243 ), #210 ) ;
#641 = CIRCLE ( 'NONE', #619, 0.1067707825203130373 ) ;
#642 = DIRECTION ( 'NONE',  ( 0.0000000000000000000, 0.0000000000000000000, 1.000000000000000000 ) ) ;
#643 = ORIENTED_EDGE ( 'NONE', *, *, #174, .F. ) ;
#644 = MANIFOLD_SOLID_BREP ( 'Sketch-Pattern1[2]', #414 ) ;
#645 = ORIENTED_EDGE ( 'NONE', *, *, #822, .T. ) ;
#646 = SPHERICAL_SURFACE ( 'NONE', #419, 0.1249999999999999445 ) ;
#647 = SPHERICAL_SURFACE ( 'NONE', #448, 0.1249999999999999445 ) ;
#648 = CARTESIAN_POINT ( 'NONE',  ( 1.199999999999998623, 0.05999999999999994227, -0.9950000000000006617 ) ) ;
#649 = COLOUR_RGB ( '',0.7921568627450980005, 0.8196078431372548767, 0.9333333333333333481 ) ;
#650 = ORIENTED_EDGE ( 'NONE', *, *, #159, .T. ) ;
#651 = ADVANCED_FACE ( 'NONE', ( #608 ), #719, .T. ) ;
#652 = CLOSED_SHELL ( 'NONE', ( #55, #393, #150 ) ) ;
#653 = DIRECTION ( 'NONE',  ( -0.0000000000000000000, -1.000000000000000000, -0.0000000000000000000 ) ) ;
#654 = UNCERTAINTY_MEASURE_WITH_UNIT (LENGTH_MEASURE( 1.000000000000000082E-05 ), #218, 'distance_accuracy_value', 'NONE');
#655 = STYLED_ITEM ( 'NONE', ( #733 ), #408 ) ;
#656 = ORIENTED_EDGE ( 'NONE', *, *, #502, .F. ) ;
#657 = FACE_OUTER_BOUND ( 'NONE', #395, .T. ) ;
#658 = DIRECTION ( 'NONE',  ( 0.0000000000000000000, 0.0000000000000000000, -1.000000000000000000 ) ) ;
#659 = AXIS2_PLACEMENT_3D ( 'NONE', #621, #553, #304 ) ;
#660 = CARTESIAN_POINT ( 'NONE',  ( -0.2000000000000005107, 0.05999999999999994227, -0.2000000000000000944 ) ) ;
#661 = PRESENTATION_LAYER_ASSIGNMENT (  '', '', ( #640 ) ) ;
#662 = CARTESIAN_POINT ( 'NONE',  ( 0.4949999999999988853, 0.4214999999999999858, -0.7950000000000005951 ) ) ;
#663 = PRODUCT_RELATED_PRODUCT_CATEGORY ( 'part', '', ( #417 ) ) ;
#664 = CARTESIAN_POINT ( 'NONE',  ( 0.1999999999999996503, 0.1249999999999998890, 0.1999999999999996503 ) ) ;
#665 = CIRCLE ( 'NONE', #753, 0.1249999999999999445 ) ;
#666 = ORIENTED_EDGE ( 'NONE', *, *, #278, .F. ) ;
#667 = CIRCLE ( 'NONE', #477, 0.1067707825203130789 ) ;
#668 = EDGE_CURVE ( 'NONE', #105, #604, #817, .T. ) ;
#669 = AXIS2_PLACEMENT_3D ( 'NONE', #425, #720, #158 ) ;
#670 = CARTESIAN_POINT ( 'NONE',  ( -0.3067707825203136451, 0.05999999999999994227, -0.6000000000000003109 ) ) ;
#671 = CARTESIAN_POINT ( 'NONE',  ( -0.2000000000000005107, 0.1249999999999998890, 0.1999999999999996503 ) ) ;
#672 = ORIENTED_EDGE ( 'NONE', *, *, #5, .T. ) ;
#673 = ORIENTED_EDGE ( 'NONE', *, *, #146, .T. ) ;
#674 = DIRECTION ( 'NONE',  ( 1.000000000000000000, 0.0000000000000000000, 0.0000000000000000000 ) ) ;
#675 = UNCERTAINTY_MEASURE_WITH_UNIT (LENGTH_MEASURE( 1.000000000000000082E-05 ), #103, 'distance_accuracy_value', 'NONE');
#676 = AXIS2_PLACEMENT_3D ( 'NONE', #3, #759, #400 ) ;
#677 = CARTESIAN_POINT ( 'NONE',  ( -0.2000000000000005107, 0.05999999999999994227, 0.5999999999999998668 ) ) ;
#678 = CARTESIAN_POINT ( 'NONE',  ( 1.199999999999998623, 0.05999999999999994227, -1.395000000000000906 ) ) ;
#679 = EDGE_LOOP ( 'NONE', ( #1, #727, #434 ) ) ;
#680 = DIRECTION ( 'NONE',  ( 0.0000000000000000000, 0.0000000000000000000, -1.000000000000000000 ) ) ;
#681 = CLOSED_SHELL ( 'NONE', ( #821, #316, #320, #74, #831, #470 ) ) ;
#682 =( GEOMETRIC_REPRESENTATION_CONTEXT ( 3 ) GLOBAL_UNCERTAINTY_ASSIGNED_CONTEXT ( ( #675 ) ) GLOBAL_UNIT_ASSIGNED_CONTEXT ( ( #103, #731, #554 ) ) REPRESENTATION_CONTEXT ( 'NONE', 'WORKASPACE' ) );
#683 = PLANE ( 'NONE',  #625 ) ;
#684 = CIRCLE ( 'NONE', #239, 0.1249999999999999445 ) ;
#685 = DIRECTION ( 'NONE',  ( -1.000000000000000000, 0.0000000000000000000, -2.168404344971009854E-16 ) ) ;
#686 = CIRCLE ( 'NONE', #127, 0.1249999999999999445 ) ;
#687 = DIRECTION ( 'NONE',  ( 0.0000000000000000000, 0.0000000000000000000, -1.000000000000000000 ) ) ;
#688 = VERTEX_POINT ( 'NONE', #25 ) ;
#689 = VERTEX_POINT ( 'NONE', #481 ) ;
#690 = CARTESIAN_POINT ( 'NONE',  ( 0.3067707825203127570, 0.05999999999999994227, -0.6000000000000003109 ) ) ;
#691 = ADVANCED_FACE ( 'NONE', ( #118 ), #445, .T. ) ;
#692 =( NAMED_UNIT ( * ) SI_UNIT ( $, .STERADIAN. ) SOLID_ANGLE_UNIT ( ) );
#693 = ADVANCED_FACE ( 'NONE', ( #275 ), #646, .T. ) ;
#694 = AXIS2_PLACEMENT_3D ( 'NONE', #46, #631, #760 ) ;
#695 = PLANE ( 'NONE',  #161 ) ;
#696 = CARTESIAN_POINT ( 'NONE',  ( 0.1999999999999996503, 0.05999999999999994227, -0.2000000000000000944 ) ) ;
#697 = EDGE_LOOP ( 'NONE', ( #499, #575 ) ) ;
#698 = FILL_AREA_STYLE ('',( #826 ) ) ;
#699 = ORIENTED_EDGE ( 'NONE', *, *, #202, .T. ) ;
#700 =( LENGTH_UNIT ( ) NAMED_UNIT ( * ) SI_UNIT ( .MILLI., .METRE. ) );
#701 = SPHERICAL_SURFACE ( 'NONE', #669, 0.1249999999999999445 ) ;
#702 = FACE_OUTER_BOUND ( 'NONE', #324, .T. ) ;
#703 = DIRECTION ( 'NONE',  ( -0.0000000000000000000, -1.000000000000000000, -0.0000000000000000000 ) ) ;
#704 = DIRECTION ( 'NONE',  ( 1.224646799147353207E-16, 0.0000000000000000000, -1.000000000000000000 ) ) ;
#705 = EDGE_CURVE ( 'NONE', #386, #369, #597, .T. ) ;
#706 = FILL_AREA_STYLE ('',( #12 ) ) ;
#707 = PRESENTATION_LAYER_ASSIGNMENT (  '', '', ( #79 ) ) ;
#708 = CLOSED_SHELL ( 'NONE', ( #712, #758, #220 ) ) ;
#709 = CARTESIAN_POINT ( 'NONE',  ( 0.7999999999999983791, 0.05999999999999994227, -1.395000000000000906 ) ) ;
#710 = DIRECTION ( 'NONE',  ( 1.000000000000000000, -0.0000000000000000000, 0.0000000000000000000 ) ) ;
#711 = LINE ( 'NONE', #341, #14 ) ;
#712 = ADVANCED_FACE ( 'NONE', ( #219 ), #360, .T. ) ;
#713 = DIRECTION ( 'NONE',  ( -5.455105270367317374E-16, 0.0000000000000000000, -1.000000000000000000 ) ) ;
#714 = DIRECTION ( 'NONE',  ( 0.0000000000000000000, -0.0000000000000000000, 1.000000000000000000 ) ) ;
#715 = ADVANCED_BREP_SHAPE_REPRESENTATION ( 'IS31FL3194-CLS2-TR', ( #408, #537, #644, #612, #318, #500, #56, #468, #210, #359 ), #100 ) ;
#716 = DIRECTION ( 'NONE',  ( 0.0000000000000000000, 0.0000000000000000000, 1.000000000000000000 ) ) ;
#717 = ORIENTED_EDGE ( 'NONE', *, *, #108, .T. ) ;
#718 = EDGE_LOOP ( 'NONE', ( #180, #336, #153 ) ) ;
#719 = SPHERICAL_SURFACE ( 'NONE', #465, 0.1249999999999999445 ) ;
#720 = DIRECTION ( 'NONE',  ( 0.0000000000000000000, 0.0000000000000000000, -1.000000000000000000 ) ) ;
#721 = DIRECTION ( 'NONE',  ( 1.000000000000000000, -0.0000000000000000000, -0.0000000000000000000 ) ) ;
#722 = EDGE_CURVE ( 'NONE', #283, #825, #730, .T. ) ;
#723 = SURFACE_STYLE_USAGE ( .BOTH. , #165 ) ;
#724 = CARTESIAN_POINT ( 'NONE',  ( -0.4949999999999999956, 0.05999999999999994227, 0.7949999999999997069 ) ) ;
#725 = FACE_OUTER_BOUND ( 'NONE', #217, .T. ) ;
#726 = EDGE_CURVE ( 'NONE', #128, #116, #486, .T. ) ;
#727 = ORIENTED_EDGE ( 'NONE', *, *, #211, .T. ) ;
#728 = ORIENTED_EDGE ( 'NONE', *, *, #705, .T. ) ;
#729 = FILL_AREA_STYLE ('',( #600 ) ) ;
#730 = CIRCLE ( 'NONE', #148, 0.1249999999999999445 ) ;
#731 =( NAMED_UNIT ( * ) PLANE_ANGLE_UNIT ( ) SI_UNIT ( $, .RADIAN. ) );
#732 = CARTESIAN_POINT ( 'NONE',  ( 0.4949999999999988853, 0.05999999999999994227, 0.7949999999999997069 ) ) ;
#733 = PRESENTATION_STYLE_ASSIGNMENT (( #199 ) ) ;
#734 = STYLED_ITEM ( 'NONE', ( #64 ), #468 ) ;
#735 = CARTESIAN_POINT ( 'NONE',  ( -0.4950000000000006617, -1.873018953454556268, -0.7950000000000005951 ) ) ;
#736 = CARTESIAN_POINT ( 'NONE',  ( 0.4949999999999988853, 0.4214999999999999858, 0.7949999999999997069 ) ) ;
#737 = EDGE_LOOP ( 'NONE', ( #379, #284, #783 ) ) ;
#738 = MECHANICAL_DESIGN_GEOMETRIC_PRESENTATION_REPRESENTATION (  '', ( #640 ), #682 ) ;
#739 = EDGE_LOOP ( 'NONE', ( #475, #261 ) ) ;
#740 = DIRECTION ( 'NONE',  ( -1.000000000000000000, 0.0000000000000000000, 0.0000000000000000000 ) ) ;
#741 = PRESENTATION_STYLE_ASSIGNMENT (( #547 ) ) ;
#742 = DIRECTION ( 'NONE',  ( 0.0000000000000000000, -1.000000000000000000, -0.0000000000000000000 ) ) ;
#743 = CARTESIAN_POINT ( 'NONE',  ( -0.2000000000000005107, -5.421010862427522170E-17, 0.5999999999999998668 ) ) ;
#744 = DIRECTION ( 'NONE',  ( -1.000000000000000000, 0.0000000000000000000, 5.455105270367317374E-16 ) ) ;
#745 = CARTESIAN_POINT ( 'NONE',  ( -0.2000000000000005107, 0.1249999999999998890, -0.6000000000000003109 ) ) ;
#746 = ADVANCED_FACE ( 'NONE', ( #295 ), #314, .T. ) ;
#747 = LINE ( 'NONE', #751, #68 ) ;
#748 = ORIENTED_EDGE ( 'NONE', *, *, #799, .T. ) ;
#749 = DIRECTION ( 'NONE',  ( -0.0000000000000000000, -1.000000000000000000, -0.0000000000000000000 ) ) ;
#750 = ORIENTED_EDGE ( 'NONE', *, *, #134, .T. ) ;
#751 = CARTESIAN_POINT ( 'NONE',  ( 0.4949999999999988853, -1.873018953454556268, -0.7950000000000005951 ) ) ;
#752 = CIRCLE ( 'NONE', #171, 0.1249999999999999445 ) ;
#753 = AXIS2_PLACEMENT_3D ( 'NONE', #143, #704, #344 ) ;
#754 = MECHANICAL_DESIGN_GEOMETRIC_PRESENTATION_REPRESENTATION (  '', ( #79 ), #800 ) ;
#755 = SURFACE_STYLE_USAGE ( .BOTH. , #317 ) ;
#756 = CARTESIAN_POINT ( 'NONE',  ( -0.2000000000000005107, 0.1249999999999998890, 0.1999999999999996503 ) ) ;
#757 = DIRECTION ( 'NONE',  ( 0.0000000000000000000, 0.0000000000000000000, -1.000000000000000000 ) ) ;
#758 = ADVANCED_FACE ( 'NONE', ( #548 ), #28, .F. ) ;
#759 = DIRECTION ( 'NONE',  ( 1.000000000000000000, -0.0000000000000000000, 0.0000000000000000000 ) ) ;
#760 = DIRECTION ( 'NONE',  ( 1.000000000000000000, 0.0000000000000000000, 0.0000000000000000000 ) ) ;
#761 = SPHERICAL_SURFACE ( 'NONE', #111, 0.1249999999999999445 ) ;
#762 = DIRECTION ( 'NONE',  ( 0.0000000000000000000, 0.0000000000000000000, -1.000000000000000000 ) ) ;
#763 = ORIENTED_EDGE ( 'NONE', *, *, #138, .F. ) ;
#764 = ORIENTED_EDGE ( 'NONE', *, *, #24, .F. ) ;
#765 = SURFACE_SIDE_STYLE ('',( #590 ) ) ;
#766 = UNCERTAINTY_MEASURE_WITH_UNIT (LENGTH_MEASURE( 1.000000000000000082E-05 ), #427, 'distance_accuracy_value', 'NONE');
#767 = AXIS2_PLACEMENT_3D ( 'NONE', #678, #742, #687 ) ;
#768 = CARTESIAN_POINT ( 'NONE',  ( 0.4949999999999988853, 0.4214999999999999858, 0.7949999999999997069 ) ) ;
#769 = CARTESIAN_POINT ( 'NONE',  ( -0.2000000000000005107, 0.05999999999999994227, -0.2000000000000000944 ) ) ;
#770 = AXIS2_PLACEMENT_3D ( 'NONE', #820, #326, #438 ) ;
#771 = CARTESIAN_POINT ( 'NONE',  ( 0.1999999999999996503, 0.1249999999999998890, -0.2000000000000000944 ) ) ;
#772 = DIRECTION ( 'NONE',  ( -0.0000000000000000000, -1.000000000000000000, -0.0000000000000000000 ) ) ;
#773 = ORIENTED_EDGE ( 'NONE', *, *, #85, .F. ) ;
#774 = VERTEX_POINT ( 'NONE', #495 ) ;
#775 = DIRECTION ( 'NONE',  ( 0.0000000000000000000, 0.0000000000000000000, -1.000000000000000000 ) ) ;
#776 = DIRECTION ( 'NONE',  ( 0.0000000000000000000, -1.000000000000000000, -0.0000000000000000000 ) ) ;
#777 = UNCERTAINTY_MEASURE_WITH_UNIT (LENGTH_MEASURE( 1.000000000000000082E-05 ), #514, 'distance_accuracy_value', 'NONE');
#778 = DIRECTION ( 'NONE',  ( 0.0000000000000000000, 0.0000000000000000000, -1.000000000000000000 ) ) ;
#779 = FACE_OUTER_BOUND ( 'NONE', #739, .T. ) ;
#780 = PRESENTATION_LAYER_ASSIGNMENT (  '', '', ( #109 ) ) ;
#781 = ORIENTED_EDGE ( 'NONE', *, *, #542, .F. ) ;
#782 = AXIS2_PLACEMENT_3D ( 'NONE', #556, #377, #185 ) ;
#783 = ORIENTED_EDGE ( 'NONE', *, *, #480, .T. ) ;
#784 = COLOUR_RGB ( '',0.7921568627450980005, 0.8196078431372548767, 0.9333333333333333481 ) ;
#785 = CARTESIAN_POINT ( 'NONE',  ( -0.3067707825203136451, 0.05999999999999994227, 0.5999999999999998668 ) ) ;
#786 = SURFACE_STYLE_FILL_AREA ( #54 ) ;
#787 = DIRECTION ( 'NONE',  ( 1.000000000000000000, 0.0000000000000000000, 0.0000000000000000000 ) ) ;
#788 = DIRECTION ( 'NONE',  ( 0.0000000000000000000, 0.0000000000000000000, 1.000000000000000000 ) ) ;
#789 = PRODUCT_DEFINITION_CONTEXT ( 'detailed design', #107, 'design' ) ;
#790 =( LENGTH_UNIT ( ) NAMED_UNIT ( * ) SI_UNIT ( .MILLI., .METRE. ) );
#791 = FACE_OUTER_BOUND ( 'NONE', #529, .T. ) ;
#792 = EDGE_LOOP ( 'NONE', ( #396, #83, #154 ) ) ;
#793 = CLOSED_SHELL ( 'NONE', ( #636, #573, #691 ) ) ;
#794 = CARTESIAN_POINT ( 'NONE',  ( 0.1999999999999996503, 0.05999999999999994227, 0.5999999999999998668 ) ) ;
#795 = CIRCLE ( 'NONE', #598, 0.1249999999999999445 ) ;
#796 = FILL_AREA_STYLE_COLOUR ( '', #818 ) ;
#797 = DIRECTION ( 'NONE',  ( -1.000000000000000000, 0.0000000000000000000, 0.0000000000000000000 ) ) ;
#798 = DIRECTION ( 'NONE',  ( -0.0000000000000000000, -1.000000000000000000, -0.0000000000000000000 ) ) ;
#799 = EDGE_CURVE ( 'NONE', #546, #688, #752, .T. ) ;
#800 =( GEOMETRIC_REPRESENTATION_CONTEXT ( 3 ) GLOBAL_UNCERTAINTY_ASSIGNED_CONTEXT ( ( #257 ) ) GLOBAL_UNIT_ASSIGNED_CONTEXT ( ( #487, #610, #94 ) ) REPRESENTATION_CONTEXT ( 'NONE', 'WORKASPACE' ) );
#801 = CARTESIAN_POINT ( 'NONE',  ( 0.3067707825203127570, 0.05999999999999994227, -0.2000000000000000944 ) ) ;
#802 =( NAMED_UNIT ( * ) SI_UNIT ( $, .STERADIAN. ) SOLID_ANGLE_UNIT ( ) );
#803 = ORIENTED_EDGE ( 'NONE', *, *, #191, .F. ) ;
#804 = ORIENTED_EDGE ( 'NONE', *, *, #226, .F. ) ;
#805 =( NAMED_UNIT ( * ) PLANE_ANGLE_UNIT ( ) SI_UNIT ( $, .RADIAN. ) );
#806 = ORIENTED_EDGE ( 'NONE', *, *, #108, .F. ) ;
#807 = FILL_AREA_STYLE ('',( #40 ) ) ;
#808 = MECHANICAL_DESIGN_GEOMETRIC_PRESENTATION_REPRESENTATION (  '', ( #370 ), #113 ) ;
#809 = DIRECTION ( 'NONE',  ( 1.224646799147353207E-16, 0.0000000000000000000, -1.000000000000000000 ) ) ;
#810 = DIRECTION ( 'NONE',  ( 0.0000000000000000000, 1.000000000000000000, 0.0000000000000000000 ) ) ;
#811 = CARTESIAN_POINT ( 'NONE',  ( -0.2000000000000005107, 0.1249999999999998890, -0.2000000000000000944 ) ) ;
#812 = CIRCLE ( 'NONE', #281, 0.1067707825203130789 ) ;
#813 = DIRECTION ( 'NONE',  ( 0.0000000000000000000, 0.0000000000000000000, 1.000000000000000000 ) ) ;
#814 = PLANE ( 'NONE',  #767 ) ;
#815 = AXIS2_PLACEMENT_3D ( 'NONE', #648, #776, #775 ) ;
#816 = VERTEX_POINT ( 'NONE', #382 ) ;
#817 = CIRCLE ( 'NONE', #98, 0.1067707825203130373 ) ;
#818 = COLOUR_RGB ( '',0.7921568627450980005, 0.8196078431372548767, 0.9333333333333333481 ) ;
#819 = PRODUCT_DEFINITION_SHAPE ( 'NONE', 'NONE',  #571 ) ;
#820 = CARTESIAN_POINT ( 'NONE',  ( -0.2000000000000005107, 0.1249999999999998890, 0.5999999999999998668 ) ) ;
#821 = ADVANCED_FACE ( 'NONE', ( #456 ), #309, .T. ) ;
#822 = EDGE_CURVE ( 'NONE', #816, #369, #405, .T. ) ;
#823 = FACE_OUTER_BOUND ( 'NONE', #350, .T. ) ;
#824 = ORIENTED_EDGE ( 'NONE', *, *, #502, .T. ) ;
#825 = VERTEX_POINT ( 'NONE', #248 ) ;
#826 = FILL_AREA_STYLE_COLOUR ( '', #649 ) ;
#827 = ORIENTED_EDGE ( 'NONE', *, *, #822, .F. ) ;
#828 = FILL_AREA_STYLE ('',( #125 ) ) ;
#829 = MECHANICAL_DESIGN_GEOMETRIC_PRESENTATION_REPRESENTATION (  '', ( #109 ), #543 ) ;
#830 = DIRECTION ( 'NONE',  ( 0.0000000000000000000, 0.0000000000000000000, -1.000000000000000000 ) ) ;
#831 = ADVANCED_FACE ( 'NONE', ( #27 ), #37, .T. ) ;
#832 = AXIS2_PLACEMENT_3D ( 'NONE', #606, #231, #797 ) ;
#833 = CARTESIAN_POINT ( 'NONE',  ( 0.1999999999999996503, 0.1249999999999998890, -0.6000000000000003109 ) ) ;
#834 = DIRECTION ( 'NONE',  ( 0.0000000000000000000, 0.0000000000000000000, -1.000000000000000000 ) ) ;
ENDSEC;
END-ISO-10303-21;
